<?xml version="1.0" standalone="no"?>
<!DOCTYPE svg PUBLIC "-//W3C//DTD SVG 20010904//EN"
 "http://www.w3.org/TR/2001/REC-SVG-20010904/DTD/svg10.dtd">
<svg version="1.0" xmlns="http://www.w3.org/2000/svg"
 width="512.000000pt" height="512.000000pt" viewBox="0 0 512.000000 512.000000"
 preserveAspectRatio="xMidYMid meet">
<metadata>
Created by potrace 1.11, written by Peter Selinger 2001-2013
</metadata>
<g transform="translate(0.000000,512.000000) scale(0.100000,-0.100000)"
fill="#000000" stroke="none">
<path d="M2039 5116 c-2 -2 -62 -6 -132 -10 -70 -4 -133 -9 -140 -11 -7 -2
-43 -6 -82 -9 -38 -4 -83 -8 -100 -11 -16 -2 -66 -9 -110 -15 -231 -32 -531
-106 -730 -180 -325 -121 -550 -292 -597 -454 -9 -31 -12 -475 -12 -1736 l-1
-1695 32 -68 c114 -241 523 -444 1128 -561 72 -13 168 -30 215 -36 47 -6 96
-13 110 -15 35 -5 112 -13 195 -20 39 -3 99 -8 135 -11 36 -3 186 -7 333 -8
l269 -3 42 -55 c68 -86 159 -151 267 -190 l64 -23 790 -2 c544 -2 806 1 840 8
128 29 246 109 326 222 180 256 110 606 -155 779 -33 21 -64 38 -70 38 -23 0
-37 18 -42 51 -8 54 -35 139 -60 196 l-24 51 0 1515 c0 1381 -2 1518 -17 1563
-79 235 -430 439 -978 567 -122 29 -367 73 -460 82 -33 4 -67 8 -75 10 -8 2
-55 7 -105 10 -49 4 -103 9 -120 12 -37 6 -730 15 -736 9z"/>
</g>
</svg>
